<mxfile host="app.diagrams.net" modified="2020-10-12T11:59:18.447Z" agent="5.0 (Windows)" etag="UeFGfJexe6gurNqtWWhj" version="13.7.9" type="github">
  <diagram id="R2lEEEUBdFMjLlhIrx00" name="Page-1">
    <mxGraphModel dx="1701" dy="2167" grid="1" gridSize="10" guides="1" tooltips="1" connect="1" arrows="1" fold="1" page="1" pageScale="1" pageWidth="850" pageHeight="1100" math="0" shadow="0" extFonts="Permanent Marker^https://fonts.googleapis.com/css?family=Permanent+Marker">
      <root>
        <mxCell id="0" />
        <mxCell id="1" parent="0" />
        <mxCell id="_rreFQ8tZvN1P9uL5Hpa-2" value="VARDAS" style="shape=partialRectangle;overflow=hidden;connectable=0;fillColor=none;top=0;left=0;bottom=0;right=0;align=left;spacingLeft=6;" parent="1" vertex="1">
          <mxGeometry x="150" y="-600" width="220" height="30" as="geometry" />
        </mxCell>
        <mxCell id="_rreFQ8tZvN1P9uL5Hpa-3" value="PAVARDĖ" style="shape=partialRectangle;overflow=hidden;connectable=0;fillColor=none;top=0;left=0;bottom=0;right=0;align=left;spacingLeft=6;" parent="1" vertex="1">
          <mxGeometry x="150" y="-570" width="220" height="30" as="geometry" />
        </mxCell>
        <mxCell id="_rreFQ8tZvN1P9uL5Hpa-4" value="ADRESAS" style="shape=partialRectangle;overflow=hidden;connectable=0;fillColor=none;top=0;left=0;bottom=0;right=0;align=left;spacingLeft=6;" parent="1" vertex="1">
          <mxGeometry x="150" y="-540" width="220" height="30" as="geometry" />
        </mxCell>
        <mxCell id="_rreFQ8tZvN1P9uL5Hpa-5" value="EL. PAŠTAS" style="shape=partialRectangle;overflow=hidden;connectable=0;fillColor=none;top=0;left=0;bottom=0;right=0;align=left;spacingLeft=6;" parent="1" vertex="1">
          <mxGeometry x="150" y="-510" width="220" height="30" as="geometry" />
        </mxCell>
        <mxCell id="_rreFQ8tZvN1P9uL5Hpa-6" value="TEL NR." style="shape=partialRectangle;overflow=hidden;connectable=0;fillColor=none;top=0;left=0;bottom=0;right=0;align=left;spacingLeft=6;" parent="1" vertex="1">
          <mxGeometry x="150" y="-480" width="220" height="30" as="geometry" />
        </mxCell>
        <mxCell id="_rreFQ8tZvN1P9uL5Hpa-7" value="BANKO SĄSKAITA" style="shape=partialRectangle;overflow=hidden;connectable=0;fillColor=none;top=0;left=0;bottom=0;right=0;align=left;spacingLeft=6;" parent="1" vertex="1">
          <mxGeometry x="150" y="-450" width="220" height="30" as="geometry" />
        </mxCell>
        <mxCell id="_rreFQ8tZvN1P9uL5Hpa-22" value="" style="shape=partialRectangle;collapsible=0;dropTarget=0;pointerEvents=0;fillColor=none;points=[[0,0.5],[1,0.5]];portConstraint=eastwest;top=0;left=0;right=0;bottom=0;" parent="1" vertex="1">
          <mxGeometry x="975" y="-505" width="250" height="30" as="geometry" />
        </mxCell>
        <mxCell id="_rreFQ8tZvN1P9uL5Hpa-23" value="" style="shape=partialRectangle;overflow=hidden;connectable=0;fillColor=none;top=0;left=0;bottom=0;right=0;" parent="_rreFQ8tZvN1P9uL5Hpa-22" vertex="1">
          <mxGeometry width="30" height="30" as="geometry" />
        </mxCell>
        <mxCell id="_rreFQ8tZvN1P9uL5Hpa-25" value="MODELIS" style="shape=partialRectangle;overflow=hidden;connectable=0;fillColor=none;top=0;left=0;bottom=0;right=0;align=left;spacingLeft=6;" parent="1" vertex="1">
          <mxGeometry x="1005" y="-505" width="220" height="30" as="geometry" />
        </mxCell>
        <mxCell id="_rreFQ8tZvN1P9uL5Hpa-75" value="PAPILDOMI" style="shape=partialRectangle;overflow=hidden;connectable=0;fillColor=none;top=0;left=0;bottom=0;right=0;align=left;spacingLeft=6;" parent="1" vertex="1">
          <mxGeometry x="1360" y="-410" width="220" height="30" as="geometry" />
        </mxCell>
        <mxCell id="_rreFQ8tZvN1P9uL5Hpa-76" value="SALONAS" style="shape=partialRectangle;overflow=hidden;connectable=0;fillColor=none;top=0;left=0;bottom=0;right=0;align=left;spacingLeft=6;" parent="1" vertex="1">
          <mxGeometry x="1360" y="-380" width="220" height="30" as="geometry" />
        </mxCell>
        <mxCell id="_rreFQ8tZvN1P9uL5Hpa-77" value="SPALVA" style="shape=partialRectangle;overflow=hidden;connectable=0;fillColor=none;top=0;left=0;bottom=0;right=0;align=left;spacingLeft=6;" parent="1" vertex="1">
          <mxGeometry x="1360" y="-350" width="220" height="30" as="geometry" />
        </mxCell>
        <mxCell id="_rreFQ8tZvN1P9uL5Hpa-78" value="APDAILA" style="shape=partialRectangle;overflow=hidden;connectable=0;fillColor=none;top=0;left=0;bottom=0;right=0;align=left;spacingLeft=6;" parent="1" vertex="1">
          <mxGeometry x="1360" y="-290" width="220" height="30" as="geometry" />
        </mxCell>
        <mxCell id="_rreFQ8tZvN1P9uL5Hpa-79" value="VARIKLIS" style="shape=partialRectangle;overflow=hidden;connectable=0;fillColor=none;top=0;left=0;bottom=0;right=0;align=left;spacingLeft=6;" parent="1" vertex="1">
          <mxGeometry x="1360" y="-320" width="220" height="30" as="geometry" />
        </mxCell>
        <mxCell id="_rreFQ8tZvN1P9uL5Hpa-80" value="GREIČIŲ_DĖŽĖ" style="shape=partialRectangle;overflow=hidden;connectable=0;fillColor=none;top=0;left=0;bottom=0;right=0;align=left;spacingLeft=6;" parent="1" vertex="1">
          <mxGeometry x="1360" y="-230" width="220" height="30" as="geometry" />
        </mxCell>
        <mxCell id="_rreFQ8tZvN1P9uL5Hpa-81" value="KURO_TIPAS" style="shape=partialRectangle;overflow=hidden;connectable=0;fillColor=none;top=0;left=0;bottom=0;right=0;align=left;spacingLeft=6;" parent="1" vertex="1">
          <mxGeometry x="1360" y="-200" width="220" height="30" as="geometry" />
        </mxCell>
        <mxCell id="_rreFQ8tZvN1P9uL5Hpa-82" value="GARSO_APARATŪRA" style="shape=partialRectangle;overflow=hidden;connectable=0;fillColor=none;top=0;left=0;bottom=0;right=0;align=left;spacingLeft=6;" parent="1" vertex="1">
          <mxGeometry x="1360" y="-170" width="220" height="30" as="geometry" />
        </mxCell>
        <mxCell id="_rreFQ8tZvN1P9uL5Hpa-83" value="PAKABA" style="shape=partialRectangle;overflow=hidden;connectable=0;fillColor=none;top=0;left=0;bottom=0;right=0;align=left;spacingLeft=6;" parent="1" vertex="1">
          <mxGeometry x="1360" y="-140" width="220" height="30" as="geometry" />
        </mxCell>
        <mxCell id="_rreFQ8tZvN1P9uL5Hpa-84" value="VAIRAS" style="shape=partialRectangle;overflow=hidden;connectable=0;fillColor=none;top=0;left=0;bottom=0;right=0;align=left;spacingLeft=6;" parent="1" vertex="1">
          <mxGeometry x="1360" y="-110" width="220" height="30" as="geometry" />
        </mxCell>
        <mxCell id="_rreFQ8tZvN1P9uL5Hpa-85" value="KLIMATO_SISTEMA" style="shape=partialRectangle;overflow=hidden;connectable=0;fillColor=none;top=0;left=0;bottom=0;right=0;align=left;spacingLeft=6;" parent="1" vertex="1">
          <mxGeometry x="1360" y="-80" width="220" height="30" as="geometry" />
        </mxCell>
        <mxCell id="_rreFQ8tZvN1P9uL5Hpa-86" value="ŽIBINTAI" style="shape=partialRectangle;overflow=hidden;connectable=0;fillColor=none;top=0;left=0;bottom=0;right=0;align=left;spacingLeft=6;" parent="1" vertex="1">
          <mxGeometry x="1360" y="-50" width="220" height="30" as="geometry" />
        </mxCell>
        <mxCell id="_rreFQ8tZvN1P9uL5Hpa-87" value="NAVIGACIJOS SISTEMA" style="shape=partialRectangle;overflow=hidden;connectable=0;fillColor=none;top=0;left=0;bottom=0;right=0;align=left;spacingLeft=6;" parent="1" vertex="1">
          <mxGeometry x="1005" y="60" width="220" height="30" as="geometry" />
        </mxCell>
        <mxCell id="_rreFQ8tZvN1P9uL5Hpa-88" value="PARKTRONIKŲ SISTEMA" style="shape=partialRectangle;overflow=hidden;connectable=0;fillColor=none;top=0;left=0;bottom=0;right=0;align=left;spacingLeft=6;" parent="1" vertex="1">
          <mxGeometry x="1005" y="95" width="220" height="30" as="geometry" />
        </mxCell>
        <mxCell id="_rreFQ8tZvN1P9uL5Hpa-89" value="PARKAVIMOSI KAMEROS" style="shape=partialRectangle;overflow=hidden;connectable=0;fillColor=none;top=0;left=0;bottom=0;right=0;align=left;spacingLeft=6;" parent="1" vertex="1">
          <mxGeometry x="1005" y="125" width="220" height="30" as="geometry" />
        </mxCell>
        <mxCell id="_rreFQ8tZvN1P9uL5Hpa-90" value="LIUKAS" style="shape=partialRectangle;overflow=hidden;connectable=0;fillColor=none;top=0;left=0;bottom=0;right=0;align=left;spacingLeft=6;" parent="1" vertex="1">
          <mxGeometry x="1005" y="160" width="220" height="30" as="geometry" />
        </mxCell>
        <mxCell id="_rreFQ8tZvN1P9uL5Hpa-91" value="KOMPIUTERIS" style="shape=partialRectangle;overflow=hidden;connectable=0;fillColor=none;top=0;left=0;bottom=0;right=0;align=left;spacingLeft=6;" parent="1" vertex="1">
          <mxGeometry x="1005" y="30" width="220" height="30" as="geometry" />
        </mxCell>
        <mxCell id="_rreFQ8tZvN1P9uL5Hpa-106" value="APMOKĖJIMO ID" style="shape=partialRectangle;overflow=hidden;connectable=0;fillColor=none;top=0;left=0;bottom=0;right=0;align=left;spacingLeft=6;" parent="1" vertex="1">
          <mxGeometry x="610" y="-370" width="220" height="30" as="geometry" />
        </mxCell>
        <mxCell id="_rreFQ8tZvN1P9uL5Hpa-107" value="&lt;div&gt;FK&lt;/div&gt;" style="text;html=1;align=center;verticalAlign=middle;resizable=0;points=[];autosize=1;" parent="1" vertex="1">
          <mxGeometry x="580" y="-365" width="30" height="20" as="geometry" />
        </mxCell>
        <mxCell id="_rreFQ8tZvN1P9uL5Hpa-108" value="AMINISTRATORIAUS ID" style="shape=partialRectangle;overflow=hidden;connectable=0;fillColor=none;top=0;left=0;bottom=0;right=0;align=left;spacingLeft=6;" parent="1" vertex="1">
          <mxGeometry x="610" y="-340" width="220" height="30" as="geometry" />
        </mxCell>
        <mxCell id="_rreFQ8tZvN1P9uL5Hpa-109" value="UŽDARYMO DATA" style="shape=partialRectangle;overflow=hidden;connectable=0;fillColor=none;top=0;left=0;bottom=0;right=0;align=left;spacingLeft=6;" parent="1" vertex="1">
          <mxGeometry x="610" y="-260" width="220" height="30" as="geometry" />
        </mxCell>
        <mxCell id="_rreFQ8tZvN1P9uL5Hpa-126" value="MOKYĖTOJAS" style="shape=partialRectangle;overflow=hidden;connectable=0;fillColor=none;top=0;left=0;bottom=0;right=0;align=left;spacingLeft=6;" parent="1" vertex="1">
          <mxGeometry x="625" y="-60" width="220" height="30" as="geometry" />
        </mxCell>
        <mxCell id="_rreFQ8tZvN1P9uL5Hpa-127" value="MOKĖTOJO SĄSKAITA" style="shape=partialRectangle;overflow=hidden;connectable=0;fillColor=none;top=0;left=0;bottom=0;right=0;align=left;spacingLeft=6;" parent="1" vertex="1">
          <mxGeometry x="625" y="-30" width="220" height="30" as="geometry" />
        </mxCell>
        <mxCell id="_rreFQ8tZvN1P9uL5Hpa-128" value="GAVĖJAS" style="shape=partialRectangle;overflow=hidden;connectable=0;fillColor=none;top=0;left=0;bottom=0;right=0;align=left;spacingLeft=6;" parent="1" vertex="1">
          <mxGeometry x="625" width="220" height="30" as="geometry" />
        </mxCell>
        <mxCell id="_rreFQ8tZvN1P9uL5Hpa-129" value="GAVĖJO SĄSKAITA" style="shape=partialRectangle;overflow=hidden;connectable=0;fillColor=none;top=0;left=0;bottom=0;right=0;align=left;spacingLeft=6;" parent="1" vertex="1">
          <mxGeometry x="625" y="30" width="220" height="30" as="geometry" />
        </mxCell>
        <mxCell id="_rreFQ8tZvN1P9uL5Hpa-130" value="TIPAS" style="shape=partialRectangle;overflow=hidden;connectable=0;fillColor=none;top=0;left=0;bottom=0;right=0;align=left;spacingLeft=6;" parent="1" vertex="1">
          <mxGeometry x="625" y="60" width="220" height="30" as="geometry" />
        </mxCell>
        <mxCell id="_rreFQ8tZvN1P9uL5Hpa-131" value="BŪSENA" style="shape=partialRectangle;overflow=hidden;connectable=0;fillColor=none;top=0;left=0;bottom=0;right=0;align=left;spacingLeft=6;" parent="1" vertex="1">
          <mxGeometry x="625" y="90" width="220" height="30" as="geometry" />
        </mxCell>
        <mxCell id="_rreFQ8tZvN1P9uL5Hpa-132" value="FK" style="text;html=1;align=center;verticalAlign=middle;resizable=0;points=[];autosize=1;" parent="1" vertex="1">
          <mxGeometry x="1330" y="-410" width="30" height="20" as="geometry" />
        </mxCell>
        <mxCell id="_rreFQ8tZvN1P9uL5Hpa-133" value="RATAI" style="shape=partialRectangle;overflow=hidden;connectable=0;fillColor=none;top=0;left=0;bottom=0;right=0;align=left;spacingLeft=6;" parent="1" vertex="1">
          <mxGeometry x="1360" y="-260" width="220" height="30" as="geometry" />
        </mxCell>
        <mxCell id="_rreFQ8tZvN1P9uL5Hpa-137" value="KLIENTO ID" style="shape=partialRectangle;overflow=hidden;connectable=0;fillColor=none;top=0;left=0;bottom=0;right=0;align=left;spacingLeft=6;" parent="1" vertex="1">
          <mxGeometry x="1005" y="-260" width="220" height="30" as="geometry" />
        </mxCell>
        <mxCell id="_rreFQ8tZvN1P9uL5Hpa-119" value="Klientas" style="shape=table;startSize=30;container=1;collapsible=1;childLayout=tableLayout;fixedRows=1;rowLines=0;fontStyle=1;align=center;resizeLast=1;" parent="1" vertex="1">
          <mxGeometry x="120" y="-660" width="250" height="240" as="geometry" />
        </mxCell>
        <mxCell id="_rreFQ8tZvN1P9uL5Hpa-120" value="" style="shape=partialRectangle;collapsible=0;dropTarget=0;pointerEvents=0;fillColor=none;points=[[0,0.5],[1,0.5]];portConstraint=eastwest;top=0;left=0;right=0;bottom=1;" parent="_rreFQ8tZvN1P9uL5Hpa-119" vertex="1">
          <mxGeometry y="30" width="250" height="30" as="geometry" />
        </mxCell>
        <mxCell id="_rreFQ8tZvN1P9uL5Hpa-121" value="PK" style="shape=partialRectangle;overflow=hidden;connectable=0;fillColor=none;top=0;left=0;bottom=0;right=0;fontStyle=1;" parent="_rreFQ8tZvN1P9uL5Hpa-120" vertex="1">
          <mxGeometry width="30" height="30" as="geometry" />
        </mxCell>
        <mxCell id="_rreFQ8tZvN1P9uL5Hpa-122" value="KLIENTO ID" style="shape=partialRectangle;overflow=hidden;connectable=0;fillColor=none;top=0;left=0;bottom=0;right=0;align=left;spacingLeft=6;fontStyle=5;" parent="_rreFQ8tZvN1P9uL5Hpa-120" vertex="1">
          <mxGeometry x="30" width="220" height="30" as="geometry" />
        </mxCell>
        <mxCell id="_rreFQ8tZvN1P9uL5Hpa-123" value="" style="shape=partialRectangle;collapsible=0;dropTarget=0;pointerEvents=0;fillColor=none;points=[[0,0.5],[1,0.5]];portConstraint=eastwest;top=0;left=0;right=0;bottom=0;" parent="_rreFQ8tZvN1P9uL5Hpa-119" vertex="1">
          <mxGeometry y="60" width="250" height="30" as="geometry" />
        </mxCell>
        <mxCell id="_rreFQ8tZvN1P9uL5Hpa-124" value="" style="shape=partialRectangle;overflow=hidden;connectable=0;fillColor=none;top=0;left=0;bottom=0;right=0;" parent="_rreFQ8tZvN1P9uL5Hpa-123" vertex="1">
          <mxGeometry width="30" height="30" as="geometry" />
        </mxCell>
        <mxCell id="_rreFQ8tZvN1P9uL5Hpa-125" value="" style="shape=partialRectangle;overflow=hidden;connectable=0;fillColor=none;top=0;left=0;bottom=0;right=0;align=left;spacingLeft=6;" parent="_rreFQ8tZvN1P9uL5Hpa-123" vertex="1">
          <mxGeometry x="30" width="220" height="30" as="geometry" />
        </mxCell>
        <mxCell id="_rreFQ8tZvN1P9uL5Hpa-99" value="UŽSAKYMAS" style="shape=table;startSize=30;container=1;collapsible=1;childLayout=tableLayout;fixedRows=1;rowLines=0;fontStyle=1;align=center;resizeLast=1;" parent="1" vertex="1">
          <mxGeometry x="580" y="-460" width="250" height="230" as="geometry" />
        </mxCell>
        <mxCell id="_rreFQ8tZvN1P9uL5Hpa-100" value="" style="shape=partialRectangle;collapsible=0;dropTarget=0;pointerEvents=0;fillColor=none;points=[[0,0.5],[1,0.5]];portConstraint=eastwest;top=0;left=0;right=0;bottom=1;" parent="_rreFQ8tZvN1P9uL5Hpa-99" vertex="1">
          <mxGeometry y="30" width="250" height="30" as="geometry" />
        </mxCell>
        <mxCell id="_rreFQ8tZvN1P9uL5Hpa-101" value="PK" style="shape=partialRectangle;overflow=hidden;connectable=0;fillColor=none;top=0;left=0;bottom=0;right=0;fontStyle=1;" parent="_rreFQ8tZvN1P9uL5Hpa-100" vertex="1">
          <mxGeometry width="30" height="30" as="geometry" />
        </mxCell>
        <mxCell id="_rreFQ8tZvN1P9uL5Hpa-102" value="UŽSAKYMO ID" style="shape=partialRectangle;overflow=hidden;connectable=0;fillColor=none;top=0;left=0;bottom=0;right=0;align=left;spacingLeft=6;fontStyle=5;" parent="_rreFQ8tZvN1P9uL5Hpa-100" vertex="1">
          <mxGeometry x="30" width="220" height="30" as="geometry" />
        </mxCell>
        <mxCell id="_rreFQ8tZvN1P9uL5Hpa-103" value="" style="shape=partialRectangle;collapsible=0;dropTarget=0;pointerEvents=0;fillColor=none;points=[[0,0.5],[1,0.5]];portConstraint=eastwest;top=0;left=0;right=0;bottom=0;" parent="_rreFQ8tZvN1P9uL5Hpa-99" vertex="1">
          <mxGeometry y="60" width="250" height="30" as="geometry" />
        </mxCell>
        <mxCell id="_rreFQ8tZvN1P9uL5Hpa-104" value="FK" style="shape=partialRectangle;overflow=hidden;connectable=0;fillColor=none;top=0;left=0;bottom=0;right=0;" parent="_rreFQ8tZvN1P9uL5Hpa-103" vertex="1">
          <mxGeometry width="30" height="30" as="geometry" />
        </mxCell>
        <mxCell id="_rreFQ8tZvN1P9uL5Hpa-105" value="KLIENTO ID" style="shape=partialRectangle;overflow=hidden;connectable=0;fillColor=none;top=0;left=0;bottom=0;right=0;align=left;spacingLeft=6;" parent="_rreFQ8tZvN1P9uL5Hpa-103" vertex="1">
          <mxGeometry x="30" width="220" height="30" as="geometry" />
        </mxCell>
        <mxCell id="_rreFQ8tZvN1P9uL5Hpa-92" value="PIRKINIŲ KREPŠELIS" style="shape=table;startSize=30;container=1;collapsible=1;childLayout=tableLayout;fixedRows=1;rowLines=0;fontStyle=1;align=center;resizeLast=1;" parent="1" vertex="1">
          <mxGeometry x="975" y="-350" width="250" height="130" as="geometry" />
        </mxCell>
        <mxCell id="_rreFQ8tZvN1P9uL5Hpa-93" value="" style="shape=partialRectangle;collapsible=0;dropTarget=0;pointerEvents=0;fillColor=none;points=[[0,0.5],[1,0.5]];portConstraint=eastwest;top=0;left=0;right=0;bottom=1;" parent="_rreFQ8tZvN1P9uL5Hpa-92" vertex="1">
          <mxGeometry y="30" width="250" height="30" as="geometry" />
        </mxCell>
        <mxCell id="_rreFQ8tZvN1P9uL5Hpa-94" value="PK" style="shape=partialRectangle;overflow=hidden;connectable=0;fillColor=none;top=0;left=0;bottom=0;right=0;fontStyle=1;" parent="_rreFQ8tZvN1P9uL5Hpa-93" vertex="1">
          <mxGeometry width="30" height="30" as="geometry" />
        </mxCell>
        <mxCell id="_rreFQ8tZvN1P9uL5Hpa-95" value="KREPŠELIO ID" style="shape=partialRectangle;overflow=hidden;connectable=0;fillColor=none;top=0;left=0;bottom=0;right=0;align=left;spacingLeft=6;fontStyle=5;" parent="_rreFQ8tZvN1P9uL5Hpa-93" vertex="1">
          <mxGeometry x="30" width="220" height="30" as="geometry" />
        </mxCell>
        <mxCell id="_rreFQ8tZvN1P9uL5Hpa-96" value="" style="shape=partialRectangle;collapsible=0;dropTarget=0;pointerEvents=0;fillColor=none;points=[[0,0.5],[1,0.5]];portConstraint=eastwest;top=0;left=0;right=0;bottom=0;" parent="_rreFQ8tZvN1P9uL5Hpa-92" vertex="1">
          <mxGeometry y="60" width="250" height="30" as="geometry" />
        </mxCell>
        <mxCell id="_rreFQ8tZvN1P9uL5Hpa-97" value="FK" style="shape=partialRectangle;overflow=hidden;connectable=0;fillColor=none;top=0;left=0;bottom=0;right=0;" parent="_rreFQ8tZvN1P9uL5Hpa-96" vertex="1">
          <mxGeometry width="30" height="30" as="geometry" />
        </mxCell>
        <mxCell id="_rreFQ8tZvN1P9uL5Hpa-98" value="AUTOMOBILIO ID" style="shape=partialRectangle;overflow=hidden;connectable=0;fillColor=none;top=0;left=0;bottom=0;right=0;align=left;spacingLeft=6;" parent="_rreFQ8tZvN1P9uL5Hpa-96" vertex="1">
          <mxGeometry x="30" width="220" height="30" as="geometry" />
        </mxCell>
        <mxCell id="C-vyLk0tnHw3VtMMgP7b-23" value="APMOKĖJIMAS" style="shape=table;startSize=30;container=1;collapsible=1;childLayout=tableLayout;fixedRows=1;rowLines=0;fontStyle=1;align=center;resizeLast=1;" parent="1" vertex="1">
          <mxGeometry x="595" y="-150" width="250" height="270" as="geometry" />
        </mxCell>
        <mxCell id="C-vyLk0tnHw3VtMMgP7b-24" value="" style="shape=partialRectangle;collapsible=0;dropTarget=0;pointerEvents=0;fillColor=none;points=[[0,0.5],[1,0.5]];portConstraint=eastwest;top=0;left=0;right=0;bottom=1;" parent="C-vyLk0tnHw3VtMMgP7b-23" vertex="1">
          <mxGeometry y="30" width="250" height="30" as="geometry" />
        </mxCell>
        <mxCell id="C-vyLk0tnHw3VtMMgP7b-25" value="PK" style="shape=partialRectangle;overflow=hidden;connectable=0;fillColor=none;top=0;left=0;bottom=0;right=0;fontStyle=1;" parent="C-vyLk0tnHw3VtMMgP7b-24" vertex="1">
          <mxGeometry width="30" height="30" as="geometry" />
        </mxCell>
        <mxCell id="C-vyLk0tnHw3VtMMgP7b-26" value="APMOKĖJIMO ID" style="shape=partialRectangle;overflow=hidden;connectable=0;fillColor=none;top=0;left=0;bottom=0;right=0;align=left;spacingLeft=6;fontStyle=5;" parent="C-vyLk0tnHw3VtMMgP7b-24" vertex="1">
          <mxGeometry x="30" width="220" height="30" as="geometry" />
        </mxCell>
        <mxCell id="C-vyLk0tnHw3VtMMgP7b-27" value="" style="shape=partialRectangle;collapsible=0;dropTarget=0;pointerEvents=0;fillColor=none;points=[[0,0.5],[1,0.5]];portConstraint=eastwest;top=0;left=0;right=0;bottom=0;" parent="C-vyLk0tnHw3VtMMgP7b-23" vertex="1">
          <mxGeometry y="60" width="250" height="30" as="geometry" />
        </mxCell>
        <mxCell id="C-vyLk0tnHw3VtMMgP7b-28" value="" style="shape=partialRectangle;overflow=hidden;connectable=0;fillColor=none;top=0;left=0;bottom=0;right=0;" parent="C-vyLk0tnHw3VtMMgP7b-27" vertex="1">
          <mxGeometry width="30" height="30" as="geometry" />
        </mxCell>
        <mxCell id="C-vyLk0tnHw3VtMMgP7b-29" value="SUMA" style="shape=partialRectangle;overflow=hidden;connectable=0;fillColor=none;top=0;left=0;bottom=0;right=0;align=left;spacingLeft=6;" parent="C-vyLk0tnHw3VtMMgP7b-27" vertex="1">
          <mxGeometry x="30" width="220" height="30" as="geometry" />
        </mxCell>
        <mxCell id="_rreFQ8tZvN1P9uL5Hpa-142" value="" style="edgeStyle=entityRelationEdgeStyle;fontSize=12;html=1;endArrow=ERoneToMany;entryX=0;entryY=0.5;entryDx=0;entryDy=0;exitX=1;exitY=0.5;exitDx=0;exitDy=0;" parent="1" source="_rreFQ8tZvN1P9uL5Hpa-123" target="_rreFQ8tZvN1P9uL5Hpa-103" edge="1">
          <mxGeometry width="100" height="100" relative="1" as="geometry">
            <mxPoint x="460" y="-450" as="sourcePoint" />
            <mxPoint x="530" y="-580" as="targetPoint" />
          </mxGeometry>
        </mxCell>
        <mxCell id="_rreFQ8tZvN1P9uL5Hpa-143" value="Gali turėti" style="edgeLabel;html=1;align=center;verticalAlign=middle;resizable=0;points=[];" parent="_rreFQ8tZvN1P9uL5Hpa-142" vertex="1" connectable="0">
          <mxGeometry x="-0.5769" y="-3" relative="1" as="geometry">
            <mxPoint as="offset" />
          </mxGeometry>
        </mxCell>
        <mxCell id="_rreFQ8tZvN1P9uL5Hpa-144" value="Privalo turėti" style="edgeLabel;html=1;align=center;verticalAlign=middle;resizable=0;points=[];" parent="_rreFQ8tZvN1P9uL5Hpa-142" vertex="1" connectable="0">
          <mxGeometry x="0.4855" y="-3" relative="1" as="geometry">
            <mxPoint as="offset" />
          </mxGeometry>
        </mxCell>
        <mxCell id="_rreFQ8tZvN1P9uL5Hpa-149" value="SUDARYMO DATA" style="shape=partialRectangle;overflow=hidden;connectable=0;fillColor=none;top=0;left=0;bottom=0;right=0;align=left;spacingLeft=6;" parent="1" vertex="1">
          <mxGeometry x="610" y="-290" width="220" height="30" as="geometry" />
        </mxCell>
        <mxCell id="_rreFQ8tZvN1P9uL5Hpa-150" value="FK" style="text;html=1;align=center;verticalAlign=middle;resizable=0;points=[];autosize=1;" parent="1" vertex="1">
          <mxGeometry x="580" y="-335" width="30" height="20" as="geometry" />
        </mxCell>
        <mxCell id="_rreFQ8tZvN1P9uL5Hpa-155" value="" style="edgeStyle=elbowEdgeStyle;fontSize=12;html=1;endArrow=ERoneToMany;" parent="1" edge="1">
          <mxGeometry width="100" height="100" relative="1" as="geometry">
            <mxPoint x="320" y="-170" as="sourcePoint" />
            <mxPoint x="580" y="-323" as="targetPoint" />
            <Array as="points">
              <mxPoint x="410" y="-77" />
            </Array>
          </mxGeometry>
        </mxCell>
        <mxCell id="_rreFQ8tZvN1P9uL5Hpa-156" value="Privalo turėti" style="text;html=1;align=center;verticalAlign=middle;resizable=0;points=[];autosize=1;" parent="1" vertex="1">
          <mxGeometry x="490" y="-320" width="80" height="20" as="geometry" />
        </mxCell>
        <mxCell id="_rreFQ8tZvN1P9uL5Hpa-110" value="ADMINISTRATORIUS" style="shape=table;startSize=30;container=1;collapsible=1;childLayout=tableLayout;fixedRows=1;rowLines=0;fontStyle=1;align=center;resizeLast=1;" parent="1" vertex="1">
          <mxGeometry x="70" y="-220" width="250" height="90" as="geometry" />
        </mxCell>
        <mxCell id="_rreFQ8tZvN1P9uL5Hpa-111" value="" style="shape=partialRectangle;collapsible=0;dropTarget=0;pointerEvents=0;fillColor=none;points=[[0,0.5],[1,0.5]];portConstraint=eastwest;top=0;left=0;right=0;bottom=1;" parent="_rreFQ8tZvN1P9uL5Hpa-110" vertex="1">
          <mxGeometry y="30" width="250" height="30" as="geometry" />
        </mxCell>
        <mxCell id="_rreFQ8tZvN1P9uL5Hpa-112" value="PK" style="shape=partialRectangle;overflow=hidden;connectable=0;fillColor=none;top=0;left=0;bottom=0;right=0;fontStyle=1;" parent="_rreFQ8tZvN1P9uL5Hpa-111" vertex="1">
          <mxGeometry width="30" height="30" as="geometry" />
        </mxCell>
        <mxCell id="_rreFQ8tZvN1P9uL5Hpa-113" value="ADMINISTRATORIAUS ID" style="shape=partialRectangle;overflow=hidden;connectable=0;fillColor=none;top=0;left=0;bottom=0;right=0;align=left;spacingLeft=6;fontStyle=5;" parent="_rreFQ8tZvN1P9uL5Hpa-111" vertex="1">
          <mxGeometry x="30" width="220" height="30" as="geometry" />
        </mxCell>
        <mxCell id="_rreFQ8tZvN1P9uL5Hpa-114" value="" style="shape=partialRectangle;collapsible=0;dropTarget=0;pointerEvents=0;fillColor=none;points=[[0,0.5],[1,0.5]];portConstraint=eastwest;top=0;left=0;right=0;bottom=0;" parent="_rreFQ8tZvN1P9uL5Hpa-110" vertex="1">
          <mxGeometry y="60" width="250" height="30" as="geometry" />
        </mxCell>
        <mxCell id="_rreFQ8tZvN1P9uL5Hpa-115" value="" style="shape=partialRectangle;overflow=hidden;connectable=0;fillColor=none;top=0;left=0;bottom=0;right=0;" parent="_rreFQ8tZvN1P9uL5Hpa-114" vertex="1">
          <mxGeometry width="30" height="30" as="geometry" />
        </mxCell>
        <mxCell id="_rreFQ8tZvN1P9uL5Hpa-116" value="PRIVILEGIJOS" style="shape=partialRectangle;overflow=hidden;connectable=0;fillColor=none;top=0;left=0;bottom=0;right=0;align=left;spacingLeft=6;" parent="_rreFQ8tZvN1P9uL5Hpa-114" vertex="1">
          <mxGeometry x="30" width="220" height="30" as="geometry" />
        </mxCell>
        <mxCell id="_rreFQ8tZvN1P9uL5Hpa-157" value="Gali turėti" style="text;html=1;align=center;verticalAlign=middle;resizable=0;points=[];autosize=1;" parent="1" vertex="1">
          <mxGeometry x="320" y="-190" width="70" height="20" as="geometry" />
        </mxCell>
        <mxCell id="_rreFQ8tZvN1P9uL5Hpa-159" value="Privalo turėti" style="text;html=1;align=center;verticalAlign=middle;resizable=0;points=[];autosize=1;" parent="1" vertex="1">
          <mxGeometry x="490" y="-370" width="80" height="20" as="geometry" />
        </mxCell>
        <mxCell id="_rreFQ8tZvN1P9uL5Hpa-160" value="Gali turėti" style="text;html=1;align=center;verticalAlign=middle;resizable=0;points=[];autosize=1;" parent="1" vertex="1">
          <mxGeometry x="495" y="-125" width="70" height="20" as="geometry" />
        </mxCell>
        <mxCell id="_rreFQ8tZvN1P9uL5Hpa-161" value="" style="edgeStyle=elbowEdgeStyle;fontSize=12;html=1;endArrow=ERoneToMany;exitX=0;exitY=0.25;exitDx=0;exitDy=0;" parent="1" source="_rreFQ8tZvN1P9uL5Hpa-92" edge="1">
          <mxGeometry width="100" height="100" relative="1" as="geometry">
            <mxPoint x="910" y="-390" as="sourcePoint" />
            <mxPoint x="830" y="-303" as="targetPoint" />
          </mxGeometry>
        </mxCell>
        <mxCell id="_rreFQ8tZvN1P9uL5Hpa-162" value="Privalo turėti" style="edgeLabel;html=1;align=center;verticalAlign=middle;resizable=0;points=[];" parent="_rreFQ8tZvN1P9uL5Hpa-161" vertex="1" connectable="0">
          <mxGeometry x="0.7126" y="-3" relative="1" as="geometry">
            <mxPoint x="19.21" as="offset" />
          </mxGeometry>
        </mxCell>
        <mxCell id="_rreFQ8tZvN1P9uL5Hpa-163" value="Gali turėti" style="edgeLabel;html=1;align=center;verticalAlign=middle;resizable=0;points=[];" parent="_rreFQ8tZvN1P9uL5Hpa-161" vertex="1" connectable="0">
          <mxGeometry x="-0.7178" y="-1" relative="1" as="geometry">
            <mxPoint x="-15" as="offset" />
          </mxGeometry>
        </mxCell>
        <mxCell id="_rreFQ8tZvN1P9uL5Hpa-68" value="PAKETO SĄRANKA" style="shape=table;startSize=30;container=1;collapsible=1;childLayout=tableLayout;fixedRows=1;rowLines=0;fontStyle=1;align=center;resizeLast=1;" parent="1" vertex="1">
          <mxGeometry x="1330" y="-470" width="250" height="450" as="geometry" />
        </mxCell>
        <mxCell id="_rreFQ8tZvN1P9uL5Hpa-69" value="" style="shape=partialRectangle;collapsible=0;dropTarget=0;pointerEvents=0;fillColor=none;points=[[0,0.5],[1,0.5]];portConstraint=eastwest;top=0;left=0;right=0;bottom=1;" parent="_rreFQ8tZvN1P9uL5Hpa-68" vertex="1">
          <mxGeometry y="30" width="250" height="30" as="geometry" />
        </mxCell>
        <mxCell id="_rreFQ8tZvN1P9uL5Hpa-70" value="PK" style="shape=partialRectangle;overflow=hidden;connectable=0;fillColor=none;top=0;left=0;bottom=0;right=0;fontStyle=1;" parent="_rreFQ8tZvN1P9uL5Hpa-69" vertex="1">
          <mxGeometry width="30" height="30" as="geometry" />
        </mxCell>
        <mxCell id="_rreFQ8tZvN1P9uL5Hpa-71" value="SĄRANKOS ID" style="shape=partialRectangle;overflow=hidden;connectable=0;fillColor=none;top=0;left=0;bottom=0;right=0;align=left;spacingLeft=6;fontStyle=5;" parent="_rreFQ8tZvN1P9uL5Hpa-69" vertex="1">
          <mxGeometry x="30" width="220" height="30" as="geometry" />
        </mxCell>
        <mxCell id="_rreFQ8tZvN1P9uL5Hpa-72" value="" style="shape=partialRectangle;collapsible=0;dropTarget=0;pointerEvents=0;fillColor=none;points=[[0,0.5],[1,0.5]];portConstraint=eastwest;top=0;left=0;right=0;bottom=0;" parent="_rreFQ8tZvN1P9uL5Hpa-68" vertex="1">
          <mxGeometry y="60" width="250" height="30" as="geometry" />
        </mxCell>
        <mxCell id="_rreFQ8tZvN1P9uL5Hpa-73" value="" style="shape=partialRectangle;overflow=hidden;connectable=0;fillColor=none;top=0;left=0;bottom=0;right=0;" parent="_rreFQ8tZvN1P9uL5Hpa-72" vertex="1">
          <mxGeometry width="30" height="30" as="geometry" />
        </mxCell>
        <mxCell id="_rreFQ8tZvN1P9uL5Hpa-74" value="" style="shape=partialRectangle;overflow=hidden;connectable=0;fillColor=none;top=0;left=0;bottom=0;right=0;align=left;spacingLeft=6;" parent="_rreFQ8tZvN1P9uL5Hpa-72" vertex="1">
          <mxGeometry x="30" width="220" height="30" as="geometry" />
        </mxCell>
        <mxCell id="C-vyLk0tnHw3VtMMgP7b-2" value="AUTOMOBILIS" style="shape=table;startSize=30;container=1;collapsible=1;childLayout=tableLayout;fixedRows=1;rowLines=0;fontStyle=1;align=center;resizeLast=1;" parent="1" vertex="1">
          <mxGeometry x="975" y="-625" width="250" height="150" as="geometry" />
        </mxCell>
        <mxCell id="C-vyLk0tnHw3VtMMgP7b-3" value="" style="shape=partialRectangle;collapsible=0;dropTarget=0;pointerEvents=0;fillColor=none;points=[[0,0.5],[1,0.5]];portConstraint=eastwest;top=0;left=0;right=0;bottom=1;" parent="C-vyLk0tnHw3VtMMgP7b-2" vertex="1">
          <mxGeometry y="30" width="250" height="30" as="geometry" />
        </mxCell>
        <mxCell id="C-vyLk0tnHw3VtMMgP7b-4" value="PK" style="shape=partialRectangle;overflow=hidden;connectable=0;fillColor=none;top=0;left=0;bottom=0;right=0;fontStyle=1;" parent="C-vyLk0tnHw3VtMMgP7b-3" vertex="1">
          <mxGeometry width="30" height="30" as="geometry" />
        </mxCell>
        <mxCell id="C-vyLk0tnHw3VtMMgP7b-5" value="AUTOMOBILIO ID" style="shape=partialRectangle;overflow=hidden;connectable=0;fillColor=none;top=0;left=0;bottom=0;right=0;align=left;spacingLeft=6;fontStyle=5;" parent="C-vyLk0tnHw3VtMMgP7b-3" vertex="1">
          <mxGeometry x="30" width="220" height="30" as="geometry" />
        </mxCell>
        <mxCell id="C-vyLk0tnHw3VtMMgP7b-6" value="" style="shape=partialRectangle;collapsible=0;dropTarget=0;pointerEvents=0;fillColor=none;points=[[0,0.5],[1,0.5]];portConstraint=eastwest;top=0;left=0;right=0;bottom=0;" parent="C-vyLk0tnHw3VtMMgP7b-2" vertex="1">
          <mxGeometry y="60" width="250" height="30" as="geometry" />
        </mxCell>
        <mxCell id="C-vyLk0tnHw3VtMMgP7b-7" value="FK" style="shape=partialRectangle;overflow=hidden;connectable=0;fillColor=none;top=0;left=0;bottom=0;right=0;" parent="C-vyLk0tnHw3VtMMgP7b-6" vertex="1">
          <mxGeometry width="30" height="30" as="geometry" />
        </mxCell>
        <mxCell id="C-vyLk0tnHw3VtMMgP7b-8" value="SĄRANKOS ID" style="shape=partialRectangle;overflow=hidden;connectable=0;fillColor=none;top=0;left=0;bottom=0;right=0;align=left;spacingLeft=6;" parent="C-vyLk0tnHw3VtMMgP7b-6" vertex="1">
          <mxGeometry x="30" width="220" height="30" as="geometry" />
        </mxCell>
        <mxCell id="C-vyLk0tnHw3VtMMgP7b-9" value="" style="shape=partialRectangle;collapsible=0;dropTarget=0;pointerEvents=0;fillColor=none;points=[[0,0.5],[1,0.5]];portConstraint=eastwest;top=0;left=0;right=0;bottom=0;" parent="C-vyLk0tnHw3VtMMgP7b-2" vertex="1">
          <mxGeometry y="90" width="250" height="30" as="geometry" />
        </mxCell>
        <mxCell id="C-vyLk0tnHw3VtMMgP7b-10" value="" style="shape=partialRectangle;overflow=hidden;connectable=0;fillColor=none;top=0;left=0;bottom=0;right=0;" parent="C-vyLk0tnHw3VtMMgP7b-9" vertex="1">
          <mxGeometry width="30" height="30" as="geometry" />
        </mxCell>
        <mxCell id="C-vyLk0tnHw3VtMMgP7b-11" value="MARKĖ" style="shape=partialRectangle;overflow=hidden;connectable=0;fillColor=none;top=0;left=0;bottom=0;right=0;align=left;spacingLeft=6;" parent="C-vyLk0tnHw3VtMMgP7b-9" vertex="1">
          <mxGeometry x="30" width="220" height="30" as="geometry" />
        </mxCell>
        <mxCell id="_rreFQ8tZvN1P9uL5Hpa-15" value="PAPILDOMI" style="shape=table;startSize=30;container=1;collapsible=1;childLayout=tableLayout;fixedRows=1;rowLines=0;fontStyle=1;align=center;resizeLast=1;" parent="1" vertex="1">
          <mxGeometry x="975" y="-30" width="250" height="220" as="geometry" />
        </mxCell>
        <mxCell id="_rreFQ8tZvN1P9uL5Hpa-16" value="" style="shape=partialRectangle;collapsible=0;dropTarget=0;pointerEvents=0;fillColor=none;points=[[0,0.5],[1,0.5]];portConstraint=eastwest;top=0;left=0;right=0;bottom=1;" parent="_rreFQ8tZvN1P9uL5Hpa-15" vertex="1">
          <mxGeometry y="30" width="250" height="30" as="geometry" />
        </mxCell>
        <mxCell id="_rreFQ8tZvN1P9uL5Hpa-17" value="PK" style="shape=partialRectangle;overflow=hidden;connectable=0;fillColor=none;top=0;left=0;bottom=0;right=0;fontStyle=1;" parent="_rreFQ8tZvN1P9uL5Hpa-16" vertex="1">
          <mxGeometry width="30" height="30" as="geometry" />
        </mxCell>
        <mxCell id="_rreFQ8tZvN1P9uL5Hpa-18" value="PAPILDOMI ID" style="shape=partialRectangle;overflow=hidden;connectable=0;fillColor=none;top=0;left=0;bottom=0;right=0;align=left;spacingLeft=6;fontStyle=5;" parent="_rreFQ8tZvN1P9uL5Hpa-16" vertex="1">
          <mxGeometry x="30" width="220" height="30" as="geometry" />
        </mxCell>
        <mxCell id="_rreFQ8tZvN1P9uL5Hpa-19" value="" style="shape=partialRectangle;collapsible=0;dropTarget=0;pointerEvents=0;fillColor=none;points=[[0,0.5],[1,0.5]];portConstraint=eastwest;top=0;left=0;right=0;bottom=0;" parent="_rreFQ8tZvN1P9uL5Hpa-15" vertex="1">
          <mxGeometry y="60" width="250" height="30" as="geometry" />
        </mxCell>
        <mxCell id="_rreFQ8tZvN1P9uL5Hpa-20" value="" style="shape=partialRectangle;overflow=hidden;connectable=0;fillColor=none;top=0;left=0;bottom=0;right=0;" parent="_rreFQ8tZvN1P9uL5Hpa-19" vertex="1">
          <mxGeometry width="30" height="30" as="geometry" />
        </mxCell>
        <mxCell id="_rreFQ8tZvN1P9uL5Hpa-21" value="" style="shape=partialRectangle;overflow=hidden;connectable=0;fillColor=none;top=0;left=0;bottom=0;right=0;align=left;spacingLeft=6;" parent="_rreFQ8tZvN1P9uL5Hpa-19" vertex="1">
          <mxGeometry x="30" width="220" height="30" as="geometry" />
        </mxCell>
        <mxCell id="_rreFQ8tZvN1P9uL5Hpa-167" value="" style="edgeStyle=elbowEdgeStyle;fontSize=12;html=1;endArrow=ERoneToMany;entryX=1;entryY=0.5;entryDx=0;entryDy=0;" parent="1" target="C-vyLk0tnHw3VtMMgP7b-6" edge="1">
          <mxGeometry width="100" height="100" relative="1" as="geometry">
            <mxPoint x="1330" y="-430" as="sourcePoint" />
            <mxPoint x="1330" y="-575" as="targetPoint" />
            <Array as="points">
              <mxPoint x="1300" y="-420" />
              <mxPoint x="1300" y="-510" />
              <mxPoint x="1290" y="-520" />
              <mxPoint x="1360" y="-530" />
            </Array>
          </mxGeometry>
        </mxCell>
        <mxCell id="_rreFQ8tZvN1P9uL5Hpa-168" value="Privalo turėti" style="edgeLabel;html=1;align=center;verticalAlign=middle;resizable=0;points=[];" parent="_rreFQ8tZvN1P9uL5Hpa-167" vertex="1" connectable="0">
          <mxGeometry x="0.7154" y="-4" relative="1" as="geometry">
            <mxPoint x="-1.67" y="14" as="offset" />
          </mxGeometry>
        </mxCell>
        <mxCell id="_rreFQ8tZvN1P9uL5Hpa-169" value="Privalo turėti" style="edgeLabel;html=1;align=center;verticalAlign=middle;resizable=0;points=[];" parent="_rreFQ8tZvN1P9uL5Hpa-167" vertex="1" connectable="0">
          <mxGeometry x="-0.4154" y="3" relative="1" as="geometry">
            <mxPoint x="-7" y="21" as="offset" />
          </mxGeometry>
        </mxCell>
        <mxCell id="_rreFQ8tZvN1P9uL5Hpa-170" value="" style="edgeStyle=elbowEdgeStyle;fontSize=12;html=1;endArrow=ERoneToMany;entryX=1;entryY=0.5;entryDx=0;entryDy=0;exitX=0;exitY=0.5;exitDx=0;exitDy=0;" parent="1" target="_rreFQ8tZvN1P9uL5Hpa-16" edge="1" source="_rreFQ8tZvN1P9uL5Hpa-72">
          <mxGeometry width="100" height="100" relative="1" as="geometry">
            <mxPoint x="1330" y="-370" as="sourcePoint" />
            <mxPoint x="1190" y="-145" as="targetPoint" />
            <Array as="points">
              <mxPoint x="1260" y="-330" />
            </Array>
          </mxGeometry>
        </mxCell>
        <mxCell id="_rreFQ8tZvN1P9uL5Hpa-171" value="Privalo turėti" style="text;html=1;align=center;verticalAlign=middle;resizable=0;points=[];autosize=1;" parent="1" vertex="1">
          <mxGeometry x="1225" y="30" width="80" height="20" as="geometry" />
        </mxCell>
        <mxCell id="_rreFQ8tZvN1P9uL5Hpa-172" value="Gali turėti" style="text;html=1;align=center;verticalAlign=middle;resizable=0;points=[];autosize=1;" parent="1" vertex="1">
          <mxGeometry x="1260" y="-365" width="70" height="20" as="geometry" />
        </mxCell>
        <mxCell id="_rreFQ8tZvN1P9uL5Hpa-173" value="" style="edgeStyle=elbowEdgeStyle;fontSize=12;html=1;endArrow=ERoneToMany;entryX=0;entryY=0.5;entryDx=0;entryDy=0;exitX=0;exitY=0.5;exitDx=0;exitDy=0;" parent="1" source="_rreFQ8tZvN1P9uL5Hpa-96" target="C-vyLk0tnHw3VtMMgP7b-3" edge="1">
          <mxGeometry width="100" height="100" relative="1" as="geometry">
            <mxPoint x="1060" y="-210" as="sourcePoint" />
            <mxPoint x="1160" y="-310" as="targetPoint" />
            <Array as="points">
              <mxPoint x="910" y="-420" />
              <mxPoint x="920" y="-410" />
              <mxPoint x="940" y="-280" />
              <mxPoint x="940" y="-275" />
              <mxPoint x="940" y="-460" />
            </Array>
          </mxGeometry>
        </mxCell>
        <mxCell id="_rreFQ8tZvN1P9uL5Hpa-175" value="Gali turėti" style="edgeLabel;html=1;align=center;verticalAlign=middle;resizable=0;points=[];" parent="_rreFQ8tZvN1P9uL5Hpa-173" vertex="1" connectable="0">
          <mxGeometry x="-0.8161" y="-1" relative="1" as="geometry">
            <mxPoint x="5" y="11" as="offset" />
          </mxGeometry>
        </mxCell>
        <mxCell id="_rreFQ8tZvN1P9uL5Hpa-174" value="Gali turėti" style="text;html=1;align=center;verticalAlign=middle;resizable=0;points=[];autosize=1;" parent="1" vertex="1">
          <mxGeometry x="905" y="-600" width="70" height="20" as="geometry" />
        </mxCell>
        <mxCell id="5hBawhoNTrniM8IU30Z3-1" value="" style="edgeStyle=elbowEdgeStyle;fontSize=12;html=1;endArrow=ERmandOne;startArrow=ERmandOne;entryX=0;entryY=0.5;entryDx=0;entryDy=0;exitX=0;exitY=0.5;exitDx=0;exitDy=0;" edge="1" parent="1" source="C-vyLk0tnHw3VtMMgP7b-24" target="_rreFQ8tZvN1P9uL5Hpa-99">
          <mxGeometry width="100" height="100" relative="1" as="geometry">
            <mxPoint x="590" y="-100" as="sourcePoint" />
            <mxPoint x="620" y="-340" as="targetPoint" />
            <Array as="points">
              <mxPoint x="480" y="-300" />
            </Array>
          </mxGeometry>
        </mxCell>
        <mxCell id="5hBawhoNTrniM8IU30Z3-4" value="FK" style="text;html=1;align=center;verticalAlign=middle;resizable=0;points=[];autosize=1;" vertex="1" parent="1">
          <mxGeometry x="580" y="-310" width="30" height="20" as="geometry" />
        </mxCell>
        <mxCell id="5hBawhoNTrniM8IU30Z3-5" value="KREPŠELIO ID" style="shape=partialRectangle;overflow=hidden;connectable=0;fillColor=none;top=0;left=0;bottom=0;right=0;align=left;spacingLeft=6;" vertex="1" parent="1">
          <mxGeometry x="610" y="-315" width="220" height="30" as="geometry" />
        </mxCell>
      </root>
    </mxGraphModel>
  </diagram>
</mxfile>
